<?xml version="1.0" standalone="no"?>
<!DOCTYPE svg PUBLIC "-//W3C//DTD SVG 1.1//EN" "http://www.w3.org/Graphics/SVG/1.1/DTD/svg11.dtd" >
<svg>
<metadata>
Created by FontForge 20090914 at Mon Mar 11 16:45:29 2019
 By www-data
Copyright Damien Guard 2012
&#226;&#128;&#156;Palm OS
</metadata>
<defs>
<font id="Palm-OS-Bold" horiz-adv-x="384" >
  <font-face 
    font-family="Palm OS Bold"
    font-weight="400"
    font-stretch="normal"
    units-per-em="1024"
    panose-1="0 0 4 0 0 0 0 0 0 0"
    ascent="819"
    descent="-205"
    x-height="320"
    cap-height="448"
    bbox="0 -128 768 576"
    underline-thickness="51"
    underline-position="126"
    unicode-range="U+0020-U+2122"
  />
<missing-glyph horiz-adv-x="408" 
d="M275 50l-103 154l-103 -154h206zM50 69l103 155l-103 154v-309v0zM294 69v309l-103 -154l103 -155v0zM172 243l103 155h-206l103 -155v0zM0 0v448h344v-448h-344z" />
    <glyph glyph-name=".notdef" horiz-adv-x="408" 
d="M275 50l-103 154l-103 -154h206zM50 69l103 155l-103 154v-309v0zM294 69v309l-103 -154l103 -155v0zM172 243l103 155h-206l103 -155v0zM0 0v448h344v-448h-344z" />
    <glyph glyph-name="space" unicode=" " horiz-adv-x="160" 
 />
    <glyph glyph-name="exclam" unicode="!" horiz-adv-x="192" 
d="M0 0v64h128v-64h-128zM0 128v320h128v-320h-128z" />
    <glyph glyph-name="quotedbl" unicode="&#x22;" 
d="M64 320v64h-64v128h128v-192h-64zM256 320v64h-64v128h128v-192h-64z" />
    <glyph glyph-name="numbersign" unicode="#" horiz-adv-x="640" 
d="M320 192v64h-64v-64h64zM64 0v128h-64v64h128v64h-64v64h128v128h128v-128h64v128h128v-128h64v-64h-128v-64h64v-64h-128v-128h-128v128h-64v-128h-128z" />
    <glyph glyph-name="dollar" unicode="$" 
d="M128 -64v64h-128v64h128v128h-64v64h-64v128h64v-64h64v64h-64v64h64v64h64v-64h128v-64h-128v-128h64v-64h64v-128h-64v64h-64v-64h64v-64h-64v-64h-64z" />
    <glyph glyph-name="percent" unicode="%" horiz-adv-x="832" 
d="M640 64v128h-64v-128h64zM512 0v64h-64v128h64v64h192v-64h64v-128h-64v-64h-192zM192 256v128h-64v-128h64zM64 192v64h-64v128h64v64h192v-64h64v-128h-64v-64h-192zM128 0v64h64v64h64v64h64v64h64v64h64v64h64v64h128v-64h-64v-64h-64v-64h-64v-64h-64v-64h-64v-64
h-64v-64h-128z" />
    <glyph glyph-name="ampersand" unicode="&#x26;" horiz-adv-x="576" 
d="M256 64v128h-128v-128h128zM256 320v64h-64v-64h64zM64 0v64h-64v128h64v64h64v64h-64v64h64v64h192v-64h64v-64h-64v-128h64v64h128v-64h-64v-128h64v-64h-128v64h-64v-64h-256z" />
    <glyph glyph-name="quotesingle" unicode="'" horiz-adv-x="192" 
d="M64 320v64h-64v128h128v-192h-64z" />
    <glyph glyph-name="parenleft" unicode="(" horiz-adv-x="320" 
d="M128 -64v64h-64v128h-64v192h64v128h64v64h128v-64h-64v-64h-64v-320h64v-64h64v-64h-128z" />
    <glyph glyph-name="parenright" unicode=")" horiz-adv-x="320" 
d="M0 -64v64h64v64h64v320h-64v64h-64v64h128v-64h64v-128h64v-192h-64v-128h-64v-64h-128z" />
    <glyph glyph-name="asterisk" unicode="*" 
d="M64 128v64h64v-64h-64zM192 128v64h64v-64h-64zM128 192v64h-128v64h128v64h64v-64h128v-64h-128v-64h-64zM64 384v64h64v-64h-64zM192 384v64h64v-64h-64z" />
    <glyph glyph-name="plus" unicode="+" 
d="M128 64v128h-128v64h128v128h64v-128h128v-64h-128v-128h-64z" />
    <glyph glyph-name="comma" unicode="," horiz-adv-x="192" 
d="M0 -128v64h64v-64h-64zM64 -64v64h-64v64h128v-128h-64z" />
    <glyph glyph-name="hyphen" unicode="-" horiz-adv-x="256" 
d="M0 192v64h192v-64h-192z" />
    <glyph glyph-name="period" unicode="." horiz-adv-x="192" 
d="M0 0v64h128v-64h-128z" />
    <glyph glyph-name="slash" unicode="/" 
d="M0 0v128h64v128h64v64h64v128h128v-128h-64v-64h-64v-128h-64v-128h-128z" />
    <glyph glyph-name="zero" unicode="0" 
d="M192 64v320h-64v-320h64zM64 0v64h-64v320h64v64h192v-64h64v-320h-64v-64h-192z" />
    <glyph glyph-name="one" unicode="1" horiz-adv-x="256" 
d="M64 0v320h-64v64h64v64h128v-448h-128z" />
    <glyph glyph-name="two" unicode="2" 
d="M0 0v128h64v64h64v64h64v128h-64v-64h-128v64h64v64h192v-64h64v-128h-64v-64h-64v-64h-64v-64h192v-64h-320z" />
    <glyph glyph-name="three" unicode="3" 
d="M64 0v64h-64v64h128v-64h64v128h-64v64h64v128h-64v-64h-128v64h64v64h192v-64h64v-128h-64v-64h64v-128h-64v-64h-192z" />
    <glyph glyph-name="four" unicode="4" 
d="M192 192v64h-64v-64h64zM192 0v128h-192v128h64v64h64v64h64v64h128v-448h-128z" />
    <glyph glyph-name="five" unicode="5" 
d="M0 0v64h192v128h-192v256h320v-64h-192v-128h128v-64h64v-128h-64v-64h-256z" />
    <glyph glyph-name="six" unicode="6" 
d="M192 64v128h-64v-128h64zM64 0v64h-64v256h64v64h64v64h128v-64h-64v-64h-64v-64h128v-64h64v-128h-64v-64h-192z" />
    <glyph glyph-name="seven" unicode="7" 
d="M64 0v192h64v128h64v64h-192v64h320v-128h-64v-128h-64v-192h-128z" />
    <glyph glyph-name="eight" unicode="8" 
d="M192 64v128h-64v-128h64zM192 256v128h-64v-128h64zM64 0v64h-64v128h64v64h-64v128h64v64h192v-64h64v-128h-64v-64h64v-128h-64v-64h-192z" />
    <glyph glyph-name="nine" unicode="9" 
d="M192 256v128h-64v-128h64zM64 0v64h64v64h64v64h-128v64h-64v128h64v64h192v-64h64v-256h-64v-64h-64v-64h-128z" />
    <glyph glyph-name="colon" unicode=":" horiz-adv-x="192" 
d="M0 0v64h128v-64h-128zM0 256v64h128v-64h-128z" />
    <glyph glyph-name="semicolon" unicode=";" horiz-adv-x="192" 
d="M0 -128v64h64v-64h-64zM64 -64v64h-64v64h128v-128h-64zM0 256v64h128v-64h-128z" />
    <glyph glyph-name="less" unicode="&#x3c;" 
d="M256 64v64h64v-64h-64zM128 128v64h-128v64h128v64h128v-64h-64v-64h64v-64h-128zM256 320v64h64v-64h-64z" />
    <glyph glyph-name="equal" unicode="=" 
d="M0 128v64h320v-64h-320zM0 256v64h320v-64h-320z" />
    <glyph glyph-name="greater" unicode="&#x3e;" 
d="M0 64v64h64v-64h-64zM64 128v64h64v64h-64v64h128v-64h128v-64h-128v-64h-128zM0 320v64h64v-64h-64z" />
    <glyph glyph-name="question" unicode="?" 
d="M64 0v64h128v-64h-128zM64 128v128h64v64h64v64h-192v64h256v-64h64v-64h-64v-64h-64v-128h-128z" />
    <glyph glyph-name="at" unicode="@" horiz-adv-x="640" 
d="M256 64v64h64v-64h-64zM192 128v64h64v-64h-64zM320 128v64h-64v64h128v-128h-64zM128 -64v64h-64v64h-64v192h64v64h64v64h320v-64h64v-64h64v-128h-64v-64h-128v64h64v128h-64v64h-192v-64h-64v-192h64v-64h192v-64h-256z" />
    <glyph glyph-name="A" unicode="A" horiz-adv-x="448" 
d="M256 256v128h-128v-128h128zM0 0v384h64v64h256v-64h64v-384h-128v192h-128v-192h-128z" />
    <glyph glyph-name="B" unicode="B" horiz-adv-x="448" 
d="M256 64v128h-128v-128h128zM256 256v128h-128v-128h128zM0 0v448h320v-64h64v-128h-64v-64h64v-128h-64v-64h-320z" />
    <glyph glyph-name="C" unicode="C" 
d="M128 0v64h-64v64h-64v192h64v64h64v64h192v-64h-128v-64h-64v-192h64v-64h128v-64h-192z" />
    <glyph glyph-name="D" unicode="D" horiz-adv-x="448" 
d="M192 64v64h64v192h-64v64h-64v-320h64zM0 0v448h256v-64h64v-64h64v-192h-64v-64h-64v-64h-256z" />
    <glyph glyph-name="E" unicode="E" horiz-adv-x="320" 
d="M0 0v448h256v-64h-128v-128h128v-64h-128v-128h128v-64h-256z" />
    <glyph glyph-name="F" unicode="F" horiz-adv-x="320" 
d="M0 0v448h256v-64h-128v-128h128v-64h-128v-192h-128z" />
    <glyph glyph-name="G" unicode="G" horiz-adv-x="512" 
d="M128 0v64h-64v64h-64v192h64v64h64v64h256v-64h-192v-64h-64v-192h64v-64h128v128h-64v64h192v-192h-64v-64h-256z" />
    <glyph glyph-name="H" unicode="H" horiz-adv-x="512" 
d="M0 0v448h128v-192h192v192h128v-448h-128v192h-192v-192h-128z" />
    <glyph glyph-name="I" unicode="I" horiz-adv-x="192" 
d="M0 0v448h128v-448h-128z" />
    <glyph glyph-name="J" unicode="J" horiz-adv-x="320" 
d="M0 0v64h128v384h128v-384h-64v-64h-192z" />
    <glyph glyph-name="K" unicode="K" horiz-adv-x="448" 
d="M0 0v448h128v-128h64v64h64v64h128v-64h-64v-64h-64v-64h-64v-64h64v-64h64v-64h64v-64h-128v64h-64v64h-64v-128h-128z" />
    <glyph glyph-name="L" unicode="L" 
d="M0 0v448h128v-384h192v-64h-320z" />
    <glyph glyph-name="M" unicode="M" horiz-adv-x="576" 
d="M320 192v128h64v-128h-64zM0 0v448h192v-128h64v-128h64v-192h-128v192h-64v128h-64v-320h-64zM448 0v320h-64v128h128v-448h-64z" />
    <glyph glyph-name="N" unicode="N" horiz-adv-x="448" 
d="M0 0v448h128v-64h64v-64h64v-64h64v192h64v-448h-64v64h-64v64h-64v64h-64v64h-64v-256h-64z" />
    <glyph glyph-name="O" unicode="O" horiz-adv-x="512" 
d="M256 64v64h64v192h-64v64h-64v-64h-64v-192h64v-64h64zM128 0v64h-64v64h-64v192h64v64h64v64h192v-64h64v-64h64v-192h-64v-64h-64v-64h-192z" />
    <glyph glyph-name="P" unicode="P" horiz-adv-x="448" 
d="M256 256v128h-128v-128h128zM0 0v448h320v-64h64v-128h-64v-64h-192v-192h-128z" />
    <glyph glyph-name="Q" unicode="Q" horiz-adv-x="512" 
d="M256 64v64h64v192h-64v64h-64v-64h-64v-192h64v-64h64zM256 -64v64h-128v64h-64v64h-64v192h64v64h64v64h192v-64h64v-64h64v-192h-64v-64h-64v-64h128v-64h-192z" />
    <glyph glyph-name="R" unicode="R" horiz-adv-x="512" 
d="M256 256v128h-128v-128h128zM0 0v448h320v-64h64v-128h-64v-128h64v-64h64v-64h-192v128h-64v64h-64v-192h-128z" />
    <glyph glyph-name="S" unicode="S" 
d="M0 0v64h192v64h-64v64h-64v64h-64v128h64v64h256v-64h-192v-64h64v-64h64v-64h64v-128h-64v-64h-256z" />
    <glyph glyph-name="T" unicode="T" horiz-adv-x="448" 
d="M128 0v384h-128v64h384v-64h-128v-384h-128z" />
    <glyph glyph-name="U" unicode="U" horiz-adv-x="448" 
d="M64 0v64h-64v384h128v-320h64v-64h64v64h64v320h64v-384h-64v-64h-256z" />
    <glyph glyph-name="V" unicode="V" horiz-adv-x="512" 
d="M128 0v128h-64v192h-64v128h128v-128h64v-192h64v128h64v192h128v-128h-64v-128h-64v-192h-192z" />
    <glyph glyph-name="W" unicode="W" horiz-adv-x="704" 
d="M128 0v128h-64v192h-64v128h128v-128h64v-128h64v-192h-128zM384 0v128h-64v64h-64v256h128v-256h64v128h64v128h128v-64h-64v-192h-64v-192h-128z" />
    <glyph glyph-name="X" unicode="X" horiz-adv-x="448" 
d="M0 0v128h64v64h64v64h-64v64h-64v128h128v-64h64v-64h64v64h64v64h64v-128h-64v-64h-64v-64h64v-64h64v-128h-128v64h-64v64h-64v-64h-64v-64h-64z" />
    <glyph glyph-name="Y" unicode="Y" horiz-adv-x="448" 
d="M128 0v192h-64v64h-64v192h128v-128h128v128h128v-192h-64v-64h-64v-192h-128z" />
    <glyph glyph-name="Z" unicode="Z" horiz-adv-x="448" 
d="M0 0v192h64v64h64v64h64v64h-192v64h384v-128h-64v-64h-64v-64h-64v-64h-64v-64h256v-64h-384z" />
    <glyph glyph-name="bracketleft" unicode="[" horiz-adv-x="256" 
d="M0 -64v576h192v-64h-64v-448h64v-64h-192z" />
    <glyph glyph-name="backslash" unicode="\" 
d="M192 0v128h-64v128h-64v64h-64v128h128v-128h64v-64h64v-128h64v-128h-128z" />
    <glyph glyph-name="bracketright" unicode="]" horiz-adv-x="256" 
d="M0 -64v64h64v448h-64v64h192v-576h-192z" />
    <glyph glyph-name="asciicircum" unicode="^" 
d="M0 128v64h64v-64h-64zM256 128v64h64v-64h-64zM64 192v128h64v-128h-64zM192 192v128h64v-128h-64zM128 320v128h64v-128h-64z" />
    <glyph glyph-name="underscore" unicode="_" horiz-adv-x="320" 
d="M0 -64v64h256v-64h-256z" />
    <glyph glyph-name="grave" unicode="`" horiz-adv-x="192" 
d="M64 384v64h64v-64h-64zM0 448v64h64v-64h-64z" />
    <glyph glyph-name="a" unicode="a" 
d="M192 64v192h-64v-192h64zM64 0v64h-64v192h64v64h256v-320h-256z" />
    <glyph glyph-name="b" unicode="b" 
d="M192 64v192h-64v-192h64zM0 0v448h128v-128h128v-64h64v-192h-64v-64h-256z" />
    <glyph glyph-name="c" unicode="c" horiz-adv-x="320" 
d="M64 0v64h-64v192h64v64h192v-64h-128v-192h128v-64h-192z" />
    <glyph glyph-name="d" unicode="d" 
d="M192 64v192h-64v-192h64zM64 0v64h-64v192h64v64h128v128h128v-448h-256z" />
    <glyph glyph-name="e" unicode="e" 
d="M192 192v64h-64v-64h64zM64 0v64h-64v192h64v64h192v-64h64v-128h-192v-64h192v-64h-256z" />
    <glyph glyph-name="f" unicode="f" 
d="M64 0v256h-64v64h64v64h64v64h192v-64h-128v-64h64v-64h-64v-256h-128z" />
    <glyph glyph-name="g" unicode="g" 
d="M192 64v192h-64v-192h64zM64 -128v64h128v64h-128v64h-64v192h64v64h256v-384h-64v-64h-192z" />
    <glyph glyph-name="h" unicode="h" 
d="M0 0v448h128v-128h128v-64h64v-256h-128v256h-64v-256h-128z" />
    <glyph glyph-name="i" unicode="i" horiz-adv-x="192" 
d="M0 0v320h128v-320h-128zM0 384v64h128v-64h-128z" />
    <glyph glyph-name="j" unicode="j" horiz-adv-x="256" 
d="M0 -64v64h64v320h128v-320h-64v-64h-128zM64 384v64h128v-64h-128z" />
    <glyph glyph-name="k" unicode="k" horiz-adv-x="448" 
d="M256 0v64h-64v64h128v-64h64v-64h-128zM0 0v448h128v-192h64v64h128v-64h-64v-64h-64v-64h-64v-128h-128z" />
    <glyph glyph-name="l" unicode="l" horiz-adv-x="192" 
d="M0 0v448h128v-448h-128z" />
    <glyph glyph-name="m" unicode="m" horiz-adv-x="576" 
d="M0 0v320h192v-64h-64v-256h-128zM192 0v256h64v64h192v-64h64v-256h-128v256h-64v-256h-128z" />
    <glyph glyph-name="n" unicode="n" 
d="M0 0v320h256v-64h64v-256h-128v256h-64v-256h-128z" />
    <glyph glyph-name="o" unicode="o" 
d="M192 64v192h-64v-192h64zM64 0v64h-64v192h64v64h192v-64h64v-192h-64v-64h-192z" />
    <glyph glyph-name="p" unicode="p" 
d="M192 64v192h-64v-192h64zM0 -128v448h256v-64h64v-192h-64v-64h-128v-128h-128z" />
    <glyph glyph-name="q" unicode="q" 
d="M192 64v192h-64v-192h64zM192 -128v128h-128v64h-64v192h64v64h256v-448h-128z" />
    <glyph glyph-name="r" unicode="r" horiz-adv-x="320" 
d="M0 0v320h128v-64h64v64h64v-128h-128v-192h-128z" />
    <glyph glyph-name="s" unicode="s" horiz-adv-x="320" 
d="M0 0v64h128v64h-128v128h64v64h192v-64h-128v-64h128v-128h-64v-64h-192z" />
    <glyph glyph-name="t" unicode="t" 
d="M128 0v64h-64v192h-64v64h64v64h128v-64h128v-64h-128v-192h128v-64h-192z" />
    <glyph glyph-name="u" unicode="u" 
d="M64 0v64h-64v256h128v-256h64v256h128v-320h-256z" />
    <glyph glyph-name="v" unicode="v" 
d="M64 0v128h-64v192h128v-192h64v192h128v-192h-64v-128h-192z" />
    <glyph glyph-name="w" unicode="w" horiz-adv-x="576" 
d="M64 0v64h-64v256h128v-192h64v192h128v-192h64v192h128v-256h-64v-64h-128v64h-128v-64h-128z" />
    <glyph glyph-name="x" unicode="x" 
d="M0 0v128h64v64h-64v128h128v-128h64v128h128v-128h-64v-64h64v-128h-128v128h-64v-128h-128z" />
    <glyph glyph-name="y" unicode="y" 
d="M0 -128v64h64v64h64v64h-64v64h-64v192h128v-192h64v192h128v-192h-64v-128h-64v-64h-64v-64h-128z" />
    <glyph glyph-name="z" unicode="z" horiz-adv-x="320" 
d="M0 0v128h64v64h64v64h-128v64h256v-128h-64v-64h-64v-64h128v-64h-256z" />
    <glyph glyph-name="braceleft" unicode="{" horiz-adv-x="320" 
d="M128 -64v64h-64v192h-64v64h64v192h64v64h128v-64h-64v-192h-64v-64h64v-192h64v-64h-128z" />
    <glyph glyph-name="bar" unicode="|" horiz-adv-x="192" 
d="M0 -64v576h128v-576h-128z" />
    <glyph glyph-name="braceright" unicode="}" horiz-adv-x="320" 
d="M0 -64v64h64v192h64v64h-64v192h-64v64h128v-64h64v-192h64v-64h-64v-192h-64v-64h-128z" />
    <glyph glyph-name="asciitilde" unicode="~" horiz-adv-x="448" 
d="M0 128v128h64v-128h-64zM192 128v64h-64v64h-64v64h128v-64h64v-64h64v-64h-128zM320 192v128h64v-128h-64z" />
    <glyph glyph-name="exclamdown" unicode="&#xa1;" horiz-adv-x="192" 
d="M0 -128v384h128v-384h-128zM0 320v64h128v-64h-128z" />
    <glyph glyph-name="cent" unicode="&#xa2;" 
d="M192 64v192h-64v-192h64zM192 -64v64h-128v64h-64v192h64v64h128v64h64v-64h64v-64h-64v-192h64v-64h-64v-64h-64z" />
    <glyph glyph-name="sterling" unicode="&#xa3;" horiz-adv-x="448" 
d="M0 0v64h64v128h-64v64h64v128h64v64h192v-64h-128v-128h128v-64h-128v-128h192v-64h-384z" />
    <glyph glyph-name="currency" unicode="&#xa4;" horiz-adv-x="512" 
d="M0 0v64h64v-64h-64zM384 0v64h64v-64h-64zM320 128v192h-192v-192h192zM0 384v64h64v-64h-64zM128 0v64h-64v64h-64v192h64v64h64v64h192v-64h64v-64h64v-192h-64v-64h-64v-64h-192zM384 384v64h64v-64h-64z" />
    <glyph glyph-name="yen" unicode="&#xa5;" horiz-adv-x="448" 
d="M128 0v128h-128v64h128v64h-128v64h64v64h-64v64h128v-64h64v-64h64v64h64v-64h64v-64h-128v-64h128v-64h-128v-128h-128zM320 384v64h64v-64h-64z" />
    <glyph glyph-name="brokenbar" unicode="&#xa6;" horiz-adv-x="192" 
d="M0 -128v256h128v-256h-128zM0 192v256h128v-256h-128z" />
    <glyph glyph-name="section" unicode="&#xa7;" 
d="M192 192v64h-64v-64h64zM64 -64v64h-64v64h128v-64h64v64h-64v64h-64v64h-64v128h64v64h-64v64h64v64h192v-64h64v-64h-128v64h-64v-64h64v-64h64v-64h64v-128h-64v-64h64v-64h-64v-64h-192z" />
    <glyph glyph-name="dieresis" unicode="&#xa8;" horiz-adv-x="256" 
d="M0 320v64h64v-64h-64zM128 320v64h64v-64h-64z" />
    <glyph glyph-name="copyright" unicode="&#xa9;" horiz-adv-x="512" 
d="M128 -64v64h192v-64h-192zM64 0v64h64v-64h-64zM320 0v64h64v-64h-64zM0 64v192h64v-192h-64zM128 64v192h192v-64h-128v-64h128v-64h-192zM384 64v192h64v-192h-64zM64 256v64h64v-64h-64zM320 256v64h64v-64h-64zM128 320v64h192v-64h-192z" />
    <glyph glyph-name="ordfeminine" unicode="&#xaa;" 
d="M192 320v64h-64v-64h64zM64 256v64h-64v64h64v64h256v-192h-256z" />
    <glyph glyph-name="guillemotleft" unicode="&#xab;" horiz-adv-x="512" 
d="M128 0v64h-64v64h-64v64h64v64h64v64h128v-64h-64v-64h-64v-64h64v-64h64v-64h-128zM320 0v64h-64v64h-64v64h64v64h64v64h128v-64h-64v-64h-64v-64h64v-64h64v-64h-128z" />
    <glyph glyph-name="logicalnot" unicode="&#xac;" 
d="M256 64v128h-256v64h320v-192h-64z" />
    <glyph glyph-name="registered" unicode="&#xae;" horiz-adv-x="512" 
d="M128 -64v64h192v-64h-192zM64 0v64h64v-64h-64zM320 0v64h64v-64h-64zM256 64v64h64v-64h-64zM0 64v192h64v-192h-64zM128 64v192h192v-64h-64v-64h-64v-64h-64zM384 64v192h64v-192h-64zM64 256v64h64v-64h-64zM320 256v64h64v-64h-64zM128 320v64h192v-64h-192z" />
    <glyph glyph-name="macron" unicode="&#xaf;" 
d="M0 448v64h320v-64h-320z" />
    <glyph glyph-name="degree" unicode="&#xb0;" horiz-adv-x="320" 
d="M64 256v64h128v-64h-128zM0 320v128h64v-128h-64zM192 320v128h64v-128h-64zM64 448v64h128v-64h-128z" />
    <glyph glyph-name="plusminus" unicode="&#xb1;" 
d="M0 64v64h128v128h-128v64h128v128h64v-128h128v-64h-128v-128h128v-64h-320z" />
    <glyph glyph-name="uni00B2" unicode="&#xb2;" horiz-adv-x="256" 
d="M0 192v64h64v64h64v-64h64v-64h-192zM128 320v64h-128v64h192v-128h-64z" />
    <glyph glyph-name="uni00B3" unicode="&#xb3;" horiz-adv-x="256" 
d="M0 192v64h128v64h64v-128h-192zM64 320v64h-64v64h192v-64h-64v-64h-64z" />
    <glyph glyph-name="acute" unicode="&#xb4;" horiz-adv-x="256" 
d="M0 384v64h64v-64h-64zM64 448v64h128v-64h-128z" />
    <glyph glyph-name="uni00B5" unicode="&#xb5;" 
d="M0 -128v448h128v-256h64v256h128v-320h-192v-128h-128z" />
    <glyph glyph-name="paragraph" unicode="&#xb6;" horiz-adv-x="448" 
d="M128 0v192h-64v64h-64v128h64v64h320v-448h-128v384h-64v-384h-64z" />
    <glyph glyph-name="periodcentered" unicode="&#xb7;" horiz-adv-x="128" 
d="M0 192v64h64v-64h-64z" />
    <glyph glyph-name="cedilla" unicode="&#xb8;" horiz-adv-x="256" 
d="M0 -128v64h128v-64h-128zM128 -64v64h64v-64h-64zM64 0v64h64v-64h-64z" />
    <glyph glyph-name="uni00B9" unicode="&#xb9;" horiz-adv-x="128" 
d="M0 256v192h64v-192h-64z" />
    <glyph glyph-name="ordmasculine" unicode="&#xba;" 
d="M0 128v64h320v-64h-320zM192 320v64h-64v-64h64zM64 256v64h-64v64h64v64h192v-64h64v-64h-64v-64h-192z" />
    <glyph glyph-name="guillemotright" unicode="&#xbb;" horiz-adv-x="512" 
d="M0 0v64h64v64h64v64h-64v64h-64v64h128v-64h64v-64h64v-64h-64v-64h-64v-64h-128zM192 0v64h64v64h64v64h-64v64h-64v64h128v-64h64v-64h64v-64h-64v-64h-64v-64h-128z" />
    <glyph glyph-name="onequarter" unicode="&#xbc;" horiz-adv-x="576" 
d="M384 0v64h-128v64h64v64h64v64h64v-128h64v-64h-64v-64h-64zM0 64v64h64v64h64v64h64v64h64v64h64v64h128v-64h-64v-64h-64v-64h-64v-64h-64v-64h-64v-64h-128zM0 256v256h128v-256h-128z" />
    <glyph glyph-name="onehalf" unicode="&#xbd;" horiz-adv-x="576" 
d="M320 0v128h64v64h-64v64h192v-128h-64v-64h64v-64h-192zM0 64v64h64v64h64v64h64v64h64v64h64v64h128v-64h-64v-64h-64v-64h-64v-64h-64v-64h-64v-64h-128zM0 256v256h128v-256h-128z" />
    <glyph glyph-name="threequarters" unicode="&#xbe;" horiz-adv-x="576" 
d="M448 0v64h-128v64h64v64h64v64h64v-256h-64zM64 64v64h64v64h64v64h64v64h64v64h64v64h128v-64h-64v-64h-64v-64h-64v-64h-64v-64h-64v-64h-128zM0 256v64h64v128h-64v64h192v-256h-192z" />
    <glyph glyph-name="questiondown" unicode="&#xbf;" 
d="M64 0v64h-64v64h64v64h64v128h128v-128h-64v-64h-64v-64h192v-64h-256zM128 384v64h128v-64h-128z" />
    <glyph glyph-name="Agrave" unicode="&#xc0;" horiz-adv-x="448" 
d="M256 192v128h-128v-128h128zM0 0v320h64v64h256v-64h64v-320h-128v128h-128v-128h-128zM192 448v64h64v-64h-64zM128 512v64h64v-64h-64z" />
    <glyph glyph-name="Aacute" unicode="&#xc1;" horiz-adv-x="448" 
d="M256 192v128h-128v-128h128zM0 0v320h64v64h256v-64h64v-320h-128v128h-128v-128h-128zM128 448v64h64v-64h-64zM192 512v64h64v-64h-64z" />
    <glyph glyph-name="Acircumflex" unicode="&#xc2;" horiz-adv-x="448" 
d="M256 192v128h-128v-128h128zM0 0v320h64v64h256v-64h64v-320h-128v128h-128v-128h-128zM128 448v64h64v-64h-64zM256 448v64h64v-64h-64zM192 512v64h64v-64h-64z" />
    <glyph glyph-name="Atilde" unicode="&#xc3;" horiz-adv-x="448" 
d="M256 192v128h-128v-128h128zM0 0v320h64v64h256v-64h64v-320h-128v128h-128v-128h-128zM0 448v64h64v-64h-64zM128 448v64h-64v64h128v-64h64v-64h-128zM256 512v64h64v-64h-64z" />
    <glyph glyph-name="Adieresis" unicode="&#xc4;" horiz-adv-x="448" 
d="M256 192v128h-128v-128h128zM0 0v320h64v64h256v-64h64v-320h-128v128h-128v-128h-128zM128 448v64h64v-64h-64zM256 448v64h64v-64h-64z" />
    <glyph glyph-name="Aring" unicode="&#xc5;" horiz-adv-x="448" 
d="M256 192v128h-128v-128h128zM0 0v320h64v64h64v64h128v-64h64v-64h64v-320h-128v128h-128v-128h-128zM64 448v64h64v-64h-64zM256 448v64h64v-64h-64zM128 512v64h128v-64h-128z" />
    <glyph glyph-name="AE" unicode="&#xc6;" horiz-adv-x="576" 
d="M256 256v128h-128v-128h128zM0 0v384h64v64h448v-64h-128v-128h128v-64h-128v-128h128v-64h-256v192h-128v-192h-128z" />
    <glyph glyph-name="Ccedilla" unicode="&#xc7;" 
d="M128 -128v64h64v-64h-64zM192 -64v64h-64v64h-64v64h-64v192h64v64h64v64h192v-64h-128v-64h-64v-192h64v-64h128v-64h-64v-64h-64z" />
    <glyph glyph-name="Egrave" unicode="&#xc8;" horiz-adv-x="320" 
d="M0 0v384h256v-64h-128v-64h128v-64h-128v-128h128v-64h-256zM128 448v64h64v-64h-64zM64 512v64h64v-64h-64z" />
    <glyph glyph-name="Eacute" unicode="&#xc9;" horiz-adv-x="320" 
d="M0 0v384h256v-64h-128v-64h128v-64h-128v-128h128v-64h-256zM64 448v64h64v-64h-64zM128 512v64h64v-64h-64z" />
    <glyph glyph-name="Ecircumflex" unicode="&#xca;" horiz-adv-x="320" 
d="M0 0v384h256v-64h-128v-64h128v-64h-128v-128h128v-64h-256zM64 448v64h64v-64h-64zM192 448v64h64v-64h-64zM128 512v64h64v-64h-64z" />
    <glyph glyph-name="Edieresis" unicode="&#xcb;" horiz-adv-x="320" 
d="M0 0v384h256v-64h-128v-64h128v-64h-128v-128h128v-64h-256zM64 448v64h64v-64h-64zM192 448v64h64v-64h-64z" />
    <glyph glyph-name="Igrave" unicode="&#xcc;" horiz-adv-x="192" 
d="M0 0v384h128v-384h-128zM64 448v64h64v-64h-64zM0 512v64h64v-64h-64z" />
    <glyph glyph-name="Iacute" unicode="&#xcd;" horiz-adv-x="192" 
d="M0 0v384h128v-384h-128zM0 448v64h64v-64h-64zM64 512v64h64v-64h-64z" />
    <glyph glyph-name="Icircumflex" unicode="&#xce;" horiz-adv-x="256" 
d="M0 0v384h128v-384h-128zM0 448v64h64v-64h-64zM128 448v64h64v-64h-64zM64 512v64h64v-64h-64z" />
    <glyph glyph-name="Idieresis" unicode="&#xcf;" horiz-adv-x="256" 
d="M0 0v384h128v-384h-128zM0 448v64h64v-64h-64zM128 448v64h64v-64h-64z" />
    <glyph glyph-name="Eth" unicode="&#xd0;" horiz-adv-x="512" 
d="M256 64v64h64v192h-64v64h-64v-128h64v-64h-64v-128h64zM64 0v192h-64v64h64v192h256v-64h64v-64h64v-192h-64v-64h-64v-64h-256z" />
    <glyph glyph-name="Ntilde" unicode="&#xd1;" horiz-adv-x="448" 
d="M0 0v384h128v-64h64v-64h64v-64h64v192h64v-384h-128v64h-64v64h-64v64h-64v-192h-64zM0 448v64h64v-64h-64zM128 448v64h-64v64h128v-64h64v-64h-128zM256 512v64h64v-64h-64z" />
    <glyph glyph-name="Ograve" unicode="&#xd2;" horiz-adv-x="512" 
d="M256 64v64h64v128h-64v64h-64v-64h-64v-128h64v-64h64zM128 0v64h-64v64h-64v128h64v64h64v64h192v-64h64v-64h64v-128h-64v-64h-64v-64h-192zM192 448v64h64v-64h-64zM128 512v64h64v-64h-64z" />
    <glyph glyph-name="Oacute" unicode="&#xd3;" horiz-adv-x="512" 
d="M256 64v64h64v128h-64v64h-64v-64h-64v-128h64v-64h64zM128 0v64h-64v64h-64v128h64v64h64v64h192v-64h64v-64h64v-128h-64v-64h-64v-64h-192zM192 448v64h64v-64h-64zM256 512v64h64v-64h-64z" />
    <glyph glyph-name="Ocircumflex" unicode="&#xd4;" horiz-adv-x="512" 
d="M256 64v64h64v128h-64v64h-64v-64h-64v-128h64v-64h64zM128 0v64h-64v64h-64v128h64v64h64v64h192v-64h64v-64h64v-128h-64v-64h-64v-64h-192zM128 448v64h64v-64h-64zM256 448v64h64v-64h-64zM192 512v64h64v-64h-64z" />
    <glyph glyph-name="Otilde" unicode="&#xd5;" horiz-adv-x="512" 
d="M256 64v64h64v128h-64v64h-64v-64h-64v-128h64v-64h64zM128 0v64h-64v64h-64v128h64v64h64v64h192v-64h64v-64h64v-128h-64v-64h-64v-64h-192zM64 448v64h64v-64h-64zM192 448v64h-64v64h128v-64h64v-64h-128zM320 512v64h64v-64h-64z" />
    <glyph glyph-name="Odieresis" unicode="&#xd6;" horiz-adv-x="512" 
d="M256 64v64h64v128h-64v64h-64v-64h-64v-128h64v-64h64zM128 0v64h-64v64h-64v128h64v64h64v64h192v-64h64v-64h64v-128h-64v-64h-64v-64h-192zM128 448v64h64v-64h-64zM256 448v64h64v-64h-64z" />
    <glyph glyph-name="multiply" unicode="&#xd7;" 
d="M0 64v64h64v128h-64v64h128v-64h64v64h128v-64h-64v-128h64v-64h-128v64h-64v-64h-128z" />
    <glyph glyph-name="Oslash" unicode="&#xd8;" horiz-adv-x="512" 
d="M0 0v64h64v-64h-64zM192 192v64h64v-64h-64zM256 64v64h64v128h-64v128h-64v-64h-64v-128h64v-128h64zM128 0v64h-64v64h-64v192h64v64h64v64h192v-64h64v-64h64v-192h-64v-64h-64v-64h-192zM384 384v64h64v-64h-64z" />
    <glyph glyph-name="Ugrave" unicode="&#xd9;" horiz-adv-x="448" 
d="M64 0v64h-64v320h128v-256h64v-64h64v64h64v256h64v-320h-64v-64h-256zM256 448v64h64v-64h-64zM192 512v64h64v-64h-64z" />
    <glyph glyph-name="Uacute" unicode="&#xda;" horiz-adv-x="448" 
d="M64 0v64h-64v320h128v-256h64v-64h64v64h64v256h64v-320h-64v-64h-256zM192 448v64h64v-64h-64zM256 512v64h64v-64h-64z" />
    <glyph glyph-name="Ucircumflex" unicode="&#xdb;" horiz-adv-x="448" 
d="M64 0v64h-64v320h128v-256h64v-64h64v64h64v256h64v-384h-320zM128 448v64h64v-64h-64zM256 448v64h64v-64h-64zM192 512v64h64v-64h-64z" />
    <glyph glyph-name="Udieresis" unicode="&#xdc;" horiz-adv-x="448" 
d="M64 0v64h-64v320h128v-256h64v-64h64v64h64v256h64v-320h-64v-64h-256zM128 448v64h64v-64h-64zM256 448v64h64v-64h-64z" />
    <glyph glyph-name="Yacute" unicode="&#xdd;" horiz-adv-x="448" 
d="M128 0v192h-64v64h-64v128h128v-128h128v128h128v-128h-64v-64h-64v-192h-128zM128 448v64h64v-64h-64zM192 512v64h64v-64h-64z" />
    <glyph glyph-name="Thorn" unicode="&#xde;" horiz-adv-x="448" 
d="M256 128v192h-128v-192h128zM0 0v448h128v-64h192v-64h64v-192h-64v-64h-192v-64h-128z" />
    <glyph glyph-name="germandbls" unicode="&#xdf;" horiz-adv-x="512" 
d="M0 0v384h64v64h256v-64h64v-64h-64v-64h64v-64h64v-128h-64v-64h-192v64h128v64h-64v64h-64v64h64v128h-128v-384h-128z" />
    <glyph glyph-name="agrave" unicode="&#xe0;" 
d="M192 64v192h-64v-192h64zM64 0v64h-64v192h64v64h256v-320h-256zM192 384v64h64v-64h-64zM128 448v64h64v-64h-64z" />
    <glyph glyph-name="aacute" unicode="&#xe1;" 
d="M192 64v192h-64v-192h64zM64 0v64h-64v192h64v64h256v-320h-256zM128 384v64h64v-64h-64zM192 448v64h64v-64h-64z" />
    <glyph glyph-name="acircumflex" unicode="&#xe2;" 
d="M192 64v192h-64v-192h64zM64 0v64h-64v192h64v64h256v-320h-256zM128 384v64h64v-64h-64zM256 384v64h64v-64h-64zM192 448v64h64v-64h-64z" />
    <glyph glyph-name="atilde" unicode="&#xe3;" 
d="M192 64v192h-64v-192h64zM64 0v64h-64v192h64v64h256v-320h-256zM0 384v64h64v-64h-64zM128 384v64h-64v64h128v-64h64v-64h-128zM256 448v64h64v-64h-64z" />
    <glyph glyph-name="adieresis" unicode="&#xe4;" 
d="M192 64v192h-64v-192h64zM64 0v64h-64v192h64v64h256v-320h-256zM128 384v64h64v-64h-64zM256 384v64h64v-64h-64z" />
    <glyph glyph-name="aring" unicode="&#xe5;" 
d="M192 64v192h-64v-192h64zM64 0v64h-64v192h64v64h256v-320h-256zM128 384v64h128v-64h-128zM64 448v64h64v-64h-64zM256 448v64h64v-64h-64zM128 512v64h128v-64h-128z" />
    <glyph glyph-name="ae" unicode="&#xe6;" horiz-adv-x="576" 
d="M192 64v64h-64v-64h64zM384 192v64h-64v-64h64zM64 256v64h128v-64h-128zM64 0v64h-64v64h64v64h128v64h64v64h192v-64h64v-128h-192v-64h192v-64h-448z" />
    <glyph glyph-name="ccedilla" unicode="&#xe7;" horiz-adv-x="320" 
d="M64 -128v64h64v-64h-64zM128 -64v64h-64v64h-64v192h64v64h192v-64h-128v-192h128v-64h-64v-64h-64z" />
    <glyph glyph-name="egrave" unicode="&#xe8;" 
d="M192 192v64h-64v-64h64zM64 0v64h-64v192h64v64h192v-64h64v-128h-192v-64h192v-64h-256zM192 384v64h64v-64h-64zM128 448v64h64v-64h-64z" />
    <glyph glyph-name="eacute" unicode="&#xe9;" 
d="M192 192v64h-64v-64h64zM64 0v64h-64v192h64v64h192v-64h64v-128h-192v-64h192v-64h-256zM128 384v64h64v-64h-64zM192 448v64h64v-64h-64z" />
    <glyph glyph-name="ecircumflex" unicode="&#xea;" 
d="M192 192v64h-64v-64h64zM64 0v64h-64v192h64v64h192v-64h64v-128h-192v-64h192v-64h-256zM64 384v64h64v-64h-64zM192 384v64h64v-64h-64zM128 448v64h64v-64h-64z" />
    <glyph glyph-name="edieresis" unicode="&#xeb;" 
d="M192 192v64h-64v-64h64zM64 0v64h-64v192h64v64h192v-64h64v-128h-192v-64h192v-64h-256zM64 384v64h64v-64h-64zM192 384v64h64v-64h-64z" />
    <glyph glyph-name="igrave" unicode="&#xec;" horiz-adv-x="192" 
d="M0 0v320h128v-320h-128zM64 384v64h64v-64h-64zM0 448v64h64v-64h-64z" />
    <glyph glyph-name="iacute" unicode="&#xed;" horiz-adv-x="192" 
d="M0 0v320h128v-320h-128zM0 384v64h64v-64h-64zM64 448v64h64v-64h-64z" />
    <glyph glyph-name="icircumflex" unicode="&#xee;" horiz-adv-x="256" 
d="M0 0v320h128v-320h-128zM0 384v64h64v-64h-64zM128 384v64h64v-64h-64zM64 448v64h64v-64h-64z" />
    <glyph glyph-name="idieresis" unicode="&#xef;" horiz-adv-x="256" 
d="M0 0v320h128v-320h-128zM0 384v64h64v-64h-64zM128 384v64h64v-64h-64z" />
    <glyph glyph-name="eth" unicode="&#xf0;" 
d="M192 64v128h-64v-128h64zM64 0v64h-64v128h64v64h64v64h-128v128h192v-128h64v-128h64v-128h-64v-64h-192z" />
    <glyph glyph-name="ntilde" unicode="&#xf1;" 
d="M0 0v320h256v-64h64v-256h-128v256h-64v-256h-128zM0 384v64h64v-64h-64zM128 384v64h-64v64h128v-64h64v-64h-128zM256 448v64h64v-64h-64z" />
    <glyph glyph-name="ograve" unicode="&#xf2;" 
d="M192 64v192h-64v-192h64zM64 0v64h-64v192h64v64h192v-64h64v-192h-64v-64h-192zM192 384v64h64v-64h-64zM128 448v64h64v-64h-64z" />
    <glyph glyph-name="oacute" unicode="&#xf3;" 
d="M192 64v192h-64v-192h64zM64 0v64h-64v192h64v64h192v-64h64v-192h-64v-64h-192zM128 384v64h64v-64h-64zM192 448v64h64v-64h-64z" />
    <glyph glyph-name="ocircumflex" unicode="&#xf4;" 
d="M192 64v192h-64v-192h64zM64 0v64h-64v192h64v64h192v-64h64v-192h-64v-64h-192zM64 384v64h64v-64h-64zM192 384v64h64v-64h-64zM128 448v64h64v-64h-64z" />
    <glyph glyph-name="otilde" unicode="&#xf5;" 
d="M192 64v192h-64v-192h64zM64 0v64h-64v192h64v64h192v-64h64v-192h-64v-64h-192zM0 384v64h64v-64h-64zM128 384v64h-64v64h128v-64h64v-64h-128zM256 448v64h64v-64h-64z" />
    <glyph glyph-name="odieresis" unicode="&#xf6;" 
d="M192 64v192h-64v-192h64zM64 0v64h-64v192h64v64h192v-64h64v-192h-64v-64h-192zM64 384v64h64v-64h-64zM192 384v64h64v-64h-64z" />
    <glyph glyph-name="divide" unicode="&#xf7;" horiz-adv-x="448" 
d="M128 0v64h128v-64h-128zM0 128v64h384v-64h-384zM128 256v64h128v-64h-128z" />
    <glyph glyph-name="oslash" unicode="&#xf8;" horiz-adv-x="512" 
d="M0 0v64h64v-64h-64zM256 64v64h-64v-64h64zM256 192v64h-64v-64h64zM128 0v64h-64v192h64v64h192v-64h64v-192h-64v-64h-192zM384 256v64h64v-64h-64z" />
    <glyph glyph-name="ugrave" unicode="&#xf9;" 
d="M64 0v64h-64v256h128v-256h64v256h128v-320h-256zM192 384v64h64v-64h-64zM128 448v64h64v-64h-64z" />
    <glyph glyph-name="uacute" unicode="&#xfa;" 
d="M64 0v64h-64v256h128v-256h64v256h128v-320h-256zM128 384v64h64v-64h-64zM192 448v64h64v-64h-64z" />
    <glyph glyph-name="ucircumflex" unicode="&#xfb;" 
d="M64 0v64h-64v256h128v-256h64v256h128v-320h-256zM64 384v64h64v-64h-64zM192 384v64h64v-64h-64zM128 448v64h64v-64h-64z" />
    <glyph glyph-name="udieresis" unicode="&#xfc;" 
d="M64 0v64h-64v256h128v-256h64v256h128v-320h-256zM64 384v64h64v-64h-64zM192 384v64h64v-64h-64z" />
    <glyph glyph-name="yacute" unicode="&#xfd;" 
d="M0 -128v64h64v64h64v64h-64v64h-64v192h128v-192h64v192h128v-192h-64v-128h-64v-64h-64v-64h-128zM128 384v64h64v-64h-64zM192 448v64h64v-64h-64z" />
    <glyph glyph-name="thorn" unicode="&#xfe;" 
d="M192 64v192h-64v-192h64zM0 -128v512h128v-64h128v-64h64v-192h-64v-64h-128v-128h-128z" />
    <glyph glyph-name="ydieresis" unicode="&#xff;" 
d="M0 -128v64h64v64h64v64h-64v64h-64v192h128v-192h64v192h128v-192h-64v-128h-64v-64h-64v-64h-128zM64 384v64h64v-64h-64zM192 384v64h64v-64h-64z" />
    <glyph glyph-name="Ydieresis" unicode="&#x178;" horiz-adv-x="448" 
d="M128 0v192h-64v64h-64v128h128v-128h128v128h128v-128h-64v-64h-64v-192h-128zM128 448v64h64v-64h-64zM256 448v64h64v-64h-64z" />
    <glyph glyph-name="uni1E9E" unicode="&#x1e9e;" horiz-adv-x="512" 
d="M0 0v384h64v64h256v-64h64v-64h-64v-64h64v-64h64v-128h-64v-64h-192v64h128v64h-64v64h-64v64h64v128h-128v-384h-128z" />
    <glyph glyph-name="emdash" unicode="&#x2014;" horiz-adv-x="448" 
d="M0 192v64h384v-64h-384z" />
    <glyph glyph-name="quoteleft" unicode="&#x2018;" horiz-adv-x="192" 
d="M0 320v128h64v-64h64v-64h-128zM64 448v64h64v-64h-64z" />
    <glyph glyph-name="quoteright" unicode="&#x2019;" horiz-adv-x="192" 
d="M0 320v64h64v-64h-64zM64 384v64h-64v64h128v-128h-64z" />
    <glyph glyph-name="quotesinglbase" unicode="&#x201a;" horiz-adv-x="192" 
d="M0 -64v64h64v-64h-64zM64 0v64h64v-64h-64z" />
    <glyph glyph-name="quotereversed" unicode="&#x201b;" horiz-adv-x="128" 
d="M0 256v192h64v-192h-64z" />
    <glyph glyph-name="quotedblleft" unicode="&#x201c;" horiz-adv-x="320" 
d="M0 320v128h64v-64h64v64h64v-64h64v-64h-256zM64 448v64h64v-64h-64zM192 448v64h64v-64h-64z" />
    <glyph glyph-name="quotedblright" unicode="&#x201d;" horiz-adv-x="320" 
d="M0 320v64h64v-64h-64zM128 320v64h64v-64h-64zM64 384v64h-64v64h256v-128h-64v64h-64v-64h-64z" />
    <glyph glyph-name="quotedblbase" unicode="&#x201e;" horiz-adv-x="320" 
d="M0 -64v64h64v-64h-64zM128 -64v64h64v-64h-64zM64 0v64h64v-64h-64zM192 0v64h64v-64h-64z" />
    <glyph glyph-name="dagger" unicode="&#x2020;" horiz-adv-x="320" 
d="M64 -128v384h-64v64h64v128h128v-128h64v-64h-64v-384h-128z" />
    <glyph glyph-name="bullet" unicode="&#x2022;" horiz-adv-x="256" 
d="M0 128v192h192v-192h-192z" />
    <glyph glyph-name="ellipsis" unicode="&#x2026;" 
d="M0 0v64h64v-64h-64zM128 0v64h64v-64h-64zM256 0v64h64v-64h-64z" />
    <glyph glyph-name="guilsinglleft" unicode="&#x2039;" horiz-adv-x="320" 
d="M128 0v64h-64v64h-64v64h64v64h64v64h128v-64h-64v-64h-64v-64h64v-64h64v-64h-128z" />
    <glyph glyph-name="guilsinglright" unicode="&#x203a;" horiz-adv-x="320" 
d="M0 0v64h64v64h64v64h-64v64h-64v64h128v-64h64v-64h64v-64h-64v-64h-64v-64h-128z" />
    <glyph glyph-name="Euro" unicode="&#x20ac;" horiz-adv-x="448" 
d="M320 64v64h64v-64h-64zM320 320v64h64v-64h-64zM128 0v64h-64v64h-64v64h64v64h-64v64h64v64h64v64h192v-64h-128v-64h128v-64h-128v-64h64v-64h-64v-64h128v-64h-192z" />
    <glyph glyph-name="trademark" unicode="&#x2122;" horiz-adv-x="640" 
d="M384 256v64h64v-64h-64zM64 256v128h-64v64h192v-64h-64v-128h-64zM256 256v192h64v-64h64v-64h-64v-64h-64zM512 256v64h-64v64h64v64h64v-192h-64z" />
    <glyph glyph-name="glyph1" horiz-adv-x="64" 
 />
    <glyph glyph-name="glyph2" horiz-adv-x="64" 
 />
  </font>
</defs>
</svg>
